<?xml version="1.0" encoding="UTF-8" standalone="no"?>
<!-- Created with Inkscape (http://www.inkscape.org/) -->

<svg
   xmlns:dc="http://purl.org/dc/elements/1.1/"
   xmlns:cc="http://creativecommons.org/ns#"
   xmlns:rdf="http://www.w3.org/1999/02/22-rdf-syntax-ns#"
   xmlns:svg="http://www.w3.org/2000/svg"
   xmlns="http://www.w3.org/2000/svg"
   xmlns:sodipodi="http://sodipodi.sourceforge.net/DTD/sodipodi-0.dtd"
   xmlns:inkscape="http://www.inkscape.org/namespaces/inkscape"
   width="330.39868"
   height="408.88602"
   id="svg3794"
   version="1.1"
   inkscape:version="0.48.4 r9939"
   inkscape:export-filename="/home/navarro/workspace/autourdumot/app/static/fleche.png"
   inkscape:export-xdpi="90"
   inkscape:export-ydpi="90"
   sodipodi:docname="Nouveau document 5">
  <defs
     id="defs3796" />
  <sodipodi:namedview
     id="base"
     pagecolor="#ffffff"
     bordercolor="#666666"
     borderopacity="1.0"
     inkscape:pageopacity="0.0"
     inkscape:pageshadow="2"
     inkscape:zoom="0.98994949"
     inkscape:cx="247.86293"
     inkscape:cy="207.53503"
     inkscape:document-units="px"
     inkscape:current-layer="layer1"
     showgrid="false"
     inkscape:window-width="1366"
     inkscape:window-height="719"
     inkscape:window-x="0"
     inkscape:window-y="25"
     inkscape:window-maximized="1"
     fit-margin-top="0"
     fit-margin-left="0"
     fit-margin-right="0"
     fit-margin-bottom="0" />
  <metadata
     id="metadata3799">
    <rdf:RDF>
      <cc:Work
         rdf:about="">
        <dc:format>image/svg+xml</dc:format>
        <dc:type
           rdf:resource="http://purl.org/dc/dcmitype/StillImage" />
        <cc:license
           rdf:resource="" />
        <dc:title></dc:title>
      </cc:Work>
    </rdf:RDF>
  </metadata>
  <g
     inkscape:label="Calque 1"
     inkscape:groupmode="layer"
     id="layer1"
     transform="translate(181.40048,-82.237382)">
    <path
       style="fill:#3a3330;fill-opacity:1;stroke:none"
       id="path4410"
       d="m 127.2462,132.15949 c -1.93512,2.69705 -4.47325,5.91771 -5.63729,9.01391 -0.7343,1.95317 -0.72259,4.11222 -1.37693,6.09191 -0.73288,2.21725 -1.97299,4.25193 -2.76821,6.44891 -3.90174,10.77953 0.87581,1.61312 -5.15199,11.8257 -6.79775,8.59868 -13.10402,16.98337 -16.770571,27.38037 -1.286715,3.64866 -1.044177,7.77698 -2.767031,11.25256 -1.56498,3.1571 -4.817478,5.24859 -6.848656,8.14554 -2.037755,2.90632 -3.541498,6.13254 -5.312249,9.19879 -2.30474,3.38738 -4.322157,6.97582 -6.914218,10.16213 -3.081341,3.78775 -6.765298,7.07737 -10.054705,10.69702 -3.974723,4.37375 -7.836739,8.84259 -11.735148,13.2804 -4.025356,4.58233 -8.174412,9.06708 -12.036045,13.77992 -27.463224,33.5168 6.554672,-5.6846 -20.419585,24.97025 -3.062211,3.73968 -6.072656,7.51974 -9.186632,11.21905 -7.0956695,8.42945 -10.66254538,12.71651 -18.8851998,20.02421 -5.9846992,5.31876 -19.3718552,15.32697 -24.7323102,20.77102 -4.05485,4.11809 -7.365383,8.86879 -11.048083,13.30318 -5.079307,7.96454 -12.358477,14.32528 -17.829646,21.99408 -2.600905,3.64562 -4.086579,8.01647 -6.986814,11.44339 -3.212566,3.79597 -7.38645,6.72178 -11.15921,9.99797 -14.410035,12.51348 -11.763368,10.06237 -27.607167,21.72153 -6.32506,13.30742 -19.99973,20.50593 -28.42391,32.12094 -1.57543,2.17214 -2.30071,4.83185 -3.72185,7.10177 -2.7855,4.44913 -4.26847,5.32024 -8.09132,8.75595 -4.38838,4.91666 -1.51208,2.16166 -7.40319,6.57776 -1.11001,0.83209 -2.42206,1.47554 -3.29309,2.54189 -0.69965,0.85652 -0.55907,2.18803 -1.26573,3.03912 -6.26858,7.54982 -1.91996,-0.0528 -3.82676,3.42173 5.406,0.24188 1.67582,-0.12531 -7.27449,2.55981 -0.68546,0.20524 1.64412,0.18985 2.12595,-0.32535 0.36631,-0.39168 -0.46319,-1.02062 -0.37872,-1.54291 0.0608,-0.37612 0.30531,0.7016 0.45806,1.05237 -13.60006,2.63541 -17.4454,-16.00627 -3.84535,-18.6417 l 0,0 c 0.74578,0.68657 0.88843,1.2144 1.98201,0.9623 1.13729,-0.26211 4.37425,-1.56847 3.33657,-1.0467 -9.37492,4.71354 -9.42261,5.23371 -6.68014,1.88276 0.53262,-0.16712 1.03838,-0.51341 1.59803,-0.50072 0.26982,0.006 0.38492,0.36679 0.57737,0.55017 1.14935,-0.44798 2.29872,-0.89587 3.44808,-1.34382 4.86672,-2.9995 5.47427,-7.61126 10.06645,-10.97427 4.2688,-3.02821 4.50988,-3.40436 9.51115,-5.98488 2.38994,-1.23316 5.03487,-2.02042 7.28845,-3.47488 3.09686,-1.99872 5.73283,-4.59967 8.66397,-6.82077 18.71017,-14.17786 5.50436,-2.91866 24.61247,-20.43762 3.80854,-4.6196 7.61709,-9.2392 11.425641,-13.85878 4.198763,-3.65057 8.848434,-6.86602 12.59629,-10.95168 3.308542,-3.60677 5.174528,-8.29924 8.420273,-11.95922 2.941403,-3.3168 6.913979,-5.6509 10.014689,-8.82848 3.083893,-3.16037 5.657596,-6.75422 8.486403,-10.13133 3.613421,-3.60937 7.226842,-7.21875 10.840275,-10.82813 3.611243,-4.58121 7.077472,-9.27329 10.833738,-13.74362 7.836052,-9.32571 13.621697,-15.12928 22.205552,-23.58483 3.132871,-3.08604 6.4049752,-6.0383 9.5087736,-9.15179 3.26696245,-3.27718 6.3584607,-6.71518 9.5996321,-10.01632 3.3532056,-3.41525 6.7880703,-6.75429 10.1821043,-10.13145 2.206884,-2.17267 21.253943,-20.84082 22.87125,-22.78647 3.889273,-4.67889 6.97193,-9.93707 10.468859,-14.89837 8.433662,-11.96528 17.227609,-23.77594 23.968003,-36.76162 8.223218,-11.66019 3.504954,-4.0238 9.909162,-16.98831 1.935398,-3.91796 9.030927,-17.34232 10.430417,-21.23837 1.266803,-3.52664 1.497248,-7.3412 2.650098,-10.90438 0.827872,-2.55877 2.180191,-4.92943 3.270287,-7.39414 0.916073,-2.04532 1.859643,-4.07928 2.748223,-6.13597 0.81413,-1.88441 1.37752,-3.87851 2.35945,-5.68625 1.00187,-1.84443 2.75336,-3.28255 3.56147,-5.21422 0.85376,-2.04077 0.71495,-4.35959 1.33056,-6.47938 3.47851,-11.97774 1.70251,-0.18346 2.97547,-12.31396 5.68483,-10.35367 20.79188,-2.56142 15.10704,7.79226 z"
       inkscape:connector-curvature="0" />
    <path
       style="fill:#3a3330;fill-opacity:1;stroke:none"
       id="path4412"
       d="m -75.897397,199.99313 c 2.211564,-0.47794 4.390793,-1.13549 6.634692,-1.43383 13.607197,-1.80923 6.741586,0.72355 21.038461,-2.92771 9.078342,-2.3185 17.439228,-6.33234 25.966984,-10.04866 14.808101,-6.44436 -2.985656,0.66386 14.414498,-4.02541 2.954671,-0.79631 5.606732,-2.52391 8.586481,-3.22397 3.468621,-0.8149 7.126075,-0.57621 10.618092,-1.28789 6.452743,-1.31506 11.758003,-3.68395 17.80084,-6.06445 4.901483,-0.48041 7.306215,-5.02846 11.300089,-6.9362 2.290704,-1.09419 5.025395,-1.03545 7.342704,-2.074 2.714426,-1.21655 5.039121,-3.14356 7.611944,-4.62832 3.125965,-1.804 6.190568,-3.74075 9.480671,-5.2358 3.879335,-1.76282 7.980673,-3.00805 11.971009,-4.51208 5.563132,-2.50864 16.847049,-7.17729 22.015906,-11.02611 2.173756,-1.61862 3.470196,-4.1668 5.511126,-5.94493 2.06502,-1.7991 7.17395,-4.18691 9.88219,-5.67621 1.01483,-0.8236 2.03232,-1.64405 3.04451,-2.4708 0.99614,-0.81366 2.05108,-1.56356 2.98047,-2.45037 3.56985,-3.40628 2.60223,-3.19924 6.01567,-6.64754 3.54381,-3.58002 1.44396,-0.2091 3.64138,-4.63787 -0.369,-3.35106 2.22527,-4.08378 3.41742,-6.65246 0.25111,-0.54106 0.28182,-1.16027 0.49733,-1.71599 0.20506,-0.52876 0.73707,-0.959089 0.75942,-1.524592 0.0237,-0.599357 -0.42161,-1.125638 -0.63246,-1.688441 -0.13166,-0.697257 -0.20038,-1.408915 -0.39503,-2.091755 -0.0245,-0.08478 -0.0909,0.151911 -0.13629,0.227869 0.44374,-0.721442 1.13557,-1.343361 1.33123,-2.164328 0.0885,-0.371296 -0.83599,0.276758 -0.96691,0.63571 -0.74188,2.034222 1.38957,0.862523 -0.59879,1.657134 0.27578,-0.0559 0.81495,0.109165 0.82739,-0.167532 0.0155,-0.34631 -0.59207,-0.404742 -0.78881,-0.692332 -2.02483,-2.959895 0.26824,0.108959 -0.43658,-2.186074 -0.44275,-1.441527 -1.93175,-2.302431 0.38691,-0.564474 -0.4941,0.127822 -1.8764,0.06374 -1.48227,0.38355 2.35071,1.907373 5.09687,3.300492 7.77805,4.72487 0.55876,0.296837 1.25105,0.225941 1.86199,0.396387 0.0533,0.01488 -0.1852,0.118323 -0.14291,0.08319 3.45666,-2.870609 4.49022,-2.922237 1.70659,-2.206616 1.97821,3.944679 -0.13987,-1.248159 -0.57753,3.473379 -0.0819,0.883275 0.93163,1.594085 0.98082,2.479705 0.11595,2.0871 -0.60902,2.8886 -1.55157,4.37341 -0.25022,0.69686 -0.37611,1.44991 -0.75065,2.09056 -0.7036,1.20351 -1.75877,2.1857 -2.45527,3.39319 -0.62467,1.08297 -4.42338,9.69325 -4.61207,10.26975 -0.84521,2.58229 -0.83977,5.42952 -1.96794,7.90499 -1.42633,3.12968 -3.73089,5.79515 -5.59634,8.69272 -0.0617,0.2197 -5.8735,20.91332 -5.88566,20.9463 -1.2029,3.26346 -3.21708,6.19976 -4.41736,9.46415 -1.2634,3.43607 -1.95037,7.05155 -2.9493,10.57087 -5.06298,17.83727 -2.76291,7.62229 -6.08535,26.68921 -2.79444,12.07645 -0.18122,24.42736 -1.78933,36.58339 -0.49665,3.75422 -2.23042,7.30779 -2.52576,11.08249 -0.30128,3.85092 0.60049,7.70382 0.75396,11.56319 0.15688,3.94509 0.11786,7.89538 0.1768,11.84307 -0.35944,3.77104 -2.0496,19.5158 -1.71252,23.57816 0.24412,2.94207 1.36341,5.75297 2.2185,8.58244 0.89491,2.9613 2.42028,5.73524 3.10542,8.7502 0.1254,0.55182 0.0476,1.12992 0.0714,1.69489 0.174,0.72683 0.53933,1.43396 0.52202,2.18047 -0.0448,1.93332 -1.73252,2.09576 -1.08049,4.66228 1.16223,4.57481 2.0006,-3.61478 0.56585,3.9177 0.47233,0.90232 0.12308,0.8394 0.90037,0.55993 -0.17791,1.04932 -0.6525,2.09057 -0.53373,3.14795 0.0485,0.43239 1.1228,0.46021 0.98546,0.87373 -0.31691,0.95414 -1.8467,1.26951 -2.02557,2.25774 -0.0935,0.5168 1.06454,0.074 1.59681,0.111 1.19921,-1.42782 -1.34466,3.89677 -1.33055,2.85113 0.0405,-3.0029 2.91828,-3.97774 -1.15888,-6.68937 -2.37357,-1.57862 -9.828188,-5.2591 -8.001919,-3.08734 2.11571,2.51595 5.983039,2.82931 8.974559,4.24397 0.3894,0.52088 0.7788,1.04174 1.16822,1.56262 3.95502,10.50477 -11.146355,16.00713 -15.101382,5.50236 l 0,0 c 0.548848,0.22326 1.097695,0.4465 1.646544,0.66976 2.82272,1.18366 6.707418,1.07882 8.468158,3.551 1.64529,2.31009 -5.687461,-1.37836 -8.054501,-2.9702 -2.243178,-1.50854 -2.594479,-5.80548 -2.263171,-8.03921 0.03684,-0.24837 0.475948,0.32965 0.71986,0.25598 0.16062,-0.0485 -0.221313,-0.24876 -0.331966,-0.37314 0.316669,-0.68345 0.310926,-1.63938 0.950014,-2.05033 0.354343,-0.22784 0.914147,1.24275 0.951091,0.8279 0.03988,-0.44781 -0.607501,-1.29549 -0.937169,-0.98422 -0.347025,0.32767 0.637302,1.75307 0.623854,1.28007 -0.120109,-4.22329 -1.72014,-0.11558 0.376533,-4.06552 -0.371372,-0.0945 -1.054891,0.0894 -1.114118,-0.28348 -0.14499,-0.9127 0.550438,-1.77925 0.64036,-2.69878 0.0606,-0.61969 -0.21492,-1.23557 -0.194758,-1.85781 0.03311,-1.02206 0.497245,-2.03515 0.353699,-3.04793 -0.09813,-0.69233 -0.839684,-1.15866 -1.044781,-1.82793 -0.04464,-0.14569 0.297651,-0.083 0.446345,-0.12487 2.873743,-6.90332 -2.124841,5.48347 1.381279,-5.23255 0.629175,-1.923 1.892318,-3.636 2.332977,-5.60909 0.626039,-2.80315 0.605156,-5.70967 0.833884,-8.57085 1.039248,-12.99999 0.765154,-10.25896 0.748108,-23.65277 0.05067,-3.98765 0.16942,-7.97501 0.152031,-11.96292 -0.01682,-3.85723 -0.437455,-7.71602 -0.254631,-11.56909 0.179229,-3.77718 0.9018,-7.51038 1.33821,-11.26721 0.45943,-3.95498 0.69732,-7.93946 1.34928,-11.86818 5.55186,-33.45574 -0.25117,12.0591 4.05668,-24.45583 0.77397,-4.70455 1.54793,-9.40909 2.32191,-14.11364 0.14708,-4.53255 -0.2328,-9.11153 0.44123,-13.59765 1.00725,-6.70393 4.83126,-14.11362 7.02345,-20.46152 1.19002,-3.44591 2.18541,-6.95528 3.16238,-10.46543 0.96553,-3.46895 1.77583,-6.9779 2.66374,-10.46687 0.75408,-3.05347 1.41108,-6.13174 2.26224,-9.16043 0.75352,-2.68128 2.02715,-5.22586 2.54912,-7.95992 0.43705,-2.28917 -0.1107,-4.68793 0.30341,-6.98123 0.28616,-1.58468 1.33432,-2.95216 1.77047,-4.5034 1.06172,-3.77627 0.64986,-3.65371 -0.22106,-7.13904 0.48663,-0.4037 0.94546,-0.842246 1.45987,-1.211111 0.0493,-0.03531 0.0125,0.229434 -0.0204,0.178903 -0.63432,-0.972427 -0.0171,-0.631404 0.0622,-2.021171 0.3414,-5.980432 -0.74948,-1.726828 0.84799,-6.52157 1.22512,-3.63547 0.78465,-3.184498 4.53009,-7.126615 0.26611,-0.280079 0.76402,-0.172862 1.12093,-0.326769 0.83852,-0.361705 1.60263,-1.547865 2.45341,-1.215034 3.11084,1.216972 5.74067,3.420646 8.37611,5.451598 0.21147,0.162958 -0.29353,0.442666 -0.44031,0.663999 0.4672,3.685813 0.0779,1.069398 0.18027,0.328793 0.0105,-0.07605 0.15405,-0.02678 0.23196,-0.03069 0.13695,-0.0069 -0.34632,0.09152 -0.34109,0.226291 0.0159,0.407447 0.21959,0.786363 0.32938,1.17954 1.72418,2.200108 1.36318,1.183853 1.61277,4.561091 0.0566,0.765768 0.60456,1.797005 0.0178,2.30332 -0.44416,0.383279 -0.63953,-1.458643 -1.20218,-1.281301 -1.55927,0.491437 0.0924,2.58474 0.32867,2.972048 -1.47849,3.300008 -1.14762,2.251968 -2.18004,5.906608 -0.7188,2.5445 -1.1026,6.34747 -3.05267,8.36678 -0.75263,0.77934 -1.77062,1.26027 -2.65592,1.89041 -0.76002,1.10824 -1.37417,2.3282 -2.28004,3.32471 -1.12756,1.24037 -2.53426,2.20506 -3.77494,3.3361 -1.16767,1.06448 -2.31965,2.14607 -3.44921,3.24963 -1.15166,1.12513 -2.31942,2.23815 -3.39335,3.43537 -1.06296,1.18497 -1.84029,2.61942 -3.00983,3.70284 -0.96596,0.89485 -2.21313,1.44047 -3.3197,2.16071 -6.46825,4.21181 -0.7755,1.32026 -7.48523,2.78496 -1.64054,0.35811 -3.18641,1.05611 -4.80445,1.50242 -9.686042,2.67175 -7.65088,1.26244 -18.385079,6.13899 -3.988861,1.81214 -7.794378,3.99172 -11.691564,5.98758 -1.288579,0.78538 -17.645457,10.69744 -19.574935,12.07938 -2.576681,1.8455 -4.656889,4.32839 -7.317527,6.05474 -2.24639,1.45757 -4.921276,2.15683 -7.285828,3.42065 -9.650032,5.15781 -2.006771,3.1505 -13.275341,4.6318 -11.533846,3.83224 -5.460477,2.25229 -18.265934,4.56597 -3.382808,0.98264 -6.525372,2.63689 -9.796626,3.93455 -7.462306,2.9602 -14.879651,6.2997 -22.810976,7.86154 -2.405873,0.67559 -4.767416,1.52863 -7.217584,2.02691 -12.686195,2.57997 -6.654998,-0.1743 -20.069211,3.76949 -12.503005,3.67587 -8.530977,3.02708 -19.119931,9.10898 -1.982529,1.13869 -4.072284,2.08625 -6.108428,3.12939 -7.94089,2.38522 -11.36982,-8.6624 -3.428938,-11.04762 z"
       inkscape:connector-curvature="0" />
  </g>
</svg>
